<svg xmlns="http://www.w3.org/2000/svg" xmlns:xlink="http://www.w3.org/1999/xlink" width="500" zoomAndPan="magnify" viewBox="0 0 375 374.999991" height="500" preserveAspectRatio="xMidYMid meet" version="1.0"><defs><clipPath id="id1"><path d="M 210 106 L 324.492188 106 L 324.492188 254.234375 L 210 254.234375 Z M 210 106 " clip-rule="nonzero"/></clipPath><clipPath id="id2"><path d="M 51 106 L 166 106 L 166 254.234375 L 51 254.234375 Z M 51 106 " clip-rule="nonzero"/></clipPath></defs><path fill="#7ed957" d="M 193.019531 222.5 C 193.019531 222.5 222.039062 186.035156 276.378906 187.273438 L 239.945312 78.503906 C 239.945312 78.503906 197.960938 76.492188 193.019531 91.324219 L 193.019531 222.5 " fill-opacity="1" fill-rule="nonzero"/><g clip-path="url(#id1)"><path fill="#008037" d="M 287.449219 109.101562 C 287.449219 109.101562 282.214844 105.988281 276.207031 106.179688 L 311.707031 210.046875 C 221.300781 209.222656 210.164062 254.257812 210.164062 254.257812 C 210.164062 254.257812 234.699219 212.726562 324.175781 218.765625 L 287.449219 109.101562 " fill-opacity="1" fill-rule="nonzero"/></g><path fill="#7ed957" d="M 265.617188 91.851562 C 259.320312 88.078125 250.304688 89.007812 250.304688 89.007812 L 286.410156 195.847656 C 228.0625 200.714844 214.632812 228.988281 214.632812 228.988281 C 214.632812 228.988281 241.257812 200.484375 304.007812 204.191406 L 265.617188 91.851562 " fill-opacity="1" fill-rule="nonzero"/><path fill="#7ed957" d="M 182.246094 222.5 C 182.246094 222.5 153.222656 186.035156 98.890625 187.273438 L 135.316406 78.503906 C 135.316406 78.503906 177.308594 76.492188 182.246094 91.324219 L 182.246094 222.5 " fill-opacity="1" fill-rule="nonzero"/><g clip-path="url(#id2)"><path fill="#008037" d="M 51.089844 218.765625 C 140.566406 212.726562 165.101562 254.257812 165.101562 254.257812 C 165.101562 254.257812 153.964844 209.222656 63.5625 210.046875 L 99.054688 106.179688 C 93.050781 105.988281 87.820312 109.101562 87.820312 109.101562 L 51.089844 218.765625 " fill-opacity="1" fill-rule="nonzero"/></g><path fill="#7ed957" d="M 109.652344 91.851562 C 115.945312 88.078125 124.964844 89.007812 124.964844 89.007812 L 88.855469 195.847656 C 147.203125 200.714844 160.636719 228.988281 160.636719 228.988281 C 160.636719 228.988281 134.003906 200.484375 71.257812 204.191406 L 109.652344 91.851562 " fill-opacity="1" fill-rule="nonzero"/></svg>